<svg width="44" height="21" viewBox="0 0 44 21" fill="none" xmlns="http://www.w3.org/2000/svg">
<path d="M14.3341 8.3416C14.3621 8.2016 14.3901 8.1176 14.3901 8.0336C14.3901 7.8096 14.2781 7.7816 13.8581 7.7816H10.4981L11.2261 4.4216C11.2541 4.2256 11.2821 4.1136 11.2821 4.0856C11.2821 3.8896 11.1141 3.8056 10.7781 3.8056L6.74612 3.8056C6.27012 3.8056 6.15812 3.8616 6.04612 4.3936L5.31812 7.7816H1.98612C1.45412 7.7816 1.37012 7.8656 1.25812 8.3416L0.530121 11.7856C0.502121 11.9816 0.474121 12.0656 0.474121 12.1496C0.474121 12.2896 0.642121 12.3736 0.978121 12.3736H4.33812L3.61012 15.7896C3.58212 15.9296 3.55412 16.0136 3.55412 16.0976C3.55412 16.2936 3.72212 16.3776 4.05812 16.3776H8.09012C8.62212 16.3776 8.67812 16.3216 8.79012 15.7896L9.51812 12.3736H12.9061C13.4381 12.3736 13.4941 12.3176 13.6061 11.7856L14.3341 8.3416Z" fill="white"/>
<path d="M27.3672 1.7056V1.6216C27.3672 1.3136 27.0872 1.1176 26.7792 1.1176H23.6712L17.3432 4.7576C17.1192 4.8976 17.0072 5.0656 17.0072 5.3176C17.0072 5.3456 17.0352 5.4296 17.0632 5.5416L18.0712 7.7816C18.2112 8.0056 18.3792 8.1176 18.5752 8.1176C18.6032 8.1176 18.6872 8.0896 18.7992 8.0616L21.4312 6.7736L19.4152 16.0976H16.7832C16.4752 16.0976 16.2792 16.3776 16.1952 16.6856L15.6912 19.3456C15.6912 19.6536 15.9432 19.8496 16.2512 19.8496H25.5472C25.8832 19.8496 26.0512 19.5696 26.1352 19.2616L26.6672 16.6016C26.6672 16.2936 26.3872 16.0976 26.0792 16.0976H24.2592L27.3672 1.7056Z" fill="white"/>
<path d="M43.3846 6.1016C43.3846 2.7136 41.2286 0.641602 37.5606 0.641602C31.8486 0.641602 27.6766 7.3616 27.6766 14.4456C27.6766 17.9176 29.4406 20.3256 33.4726 20.3256C39.4926 20.3256 43.3846 13.3816 43.3846 6.1016ZM38.1486 6.6336C38.1486 8.9576 36.7486 16.0416 33.9206 16.0416C33.2766 16.0416 32.9126 15.7336 32.9126 14.3616C32.9126 12.2336 34.3126 4.9256 37.1126 4.9256C37.7846 4.9256 38.1486 5.2616 38.1486 6.6336Z" fill="white"/>
</svg>
