<svg width="494" height="213" viewBox="0 0 494 213" fill="none" xmlns="http://www.w3.org/2000/svg">
<g filter="url(#filter0_d)">
<path d="M160.144 162.277C160.144 164.818 159.753 166.48 158.971 167.262C158.385 168.044 156.724 168.435 153.987 168.435H139.621V202.445C139.621 205.182 139.23 206.843 138.448 207.429C137.666 208.016 136.005 208.309 133.463 208.309H94.7618C92.0253 208.309 90.2661 207.918 89.4843 207.136C88.8979 206.55 88.6047 204.986 88.6047 202.445V168.435H10.9081C8.36705 168.435 6.70561 168.044 5.92376 167.262C5.14191 166.48 4.75098 164.818 4.75098 162.277V123.869L81.8612 3.95217C83.6204 1.41115 84.8909 0.140633 85.6727 0.140633C86.6501 0.140633 88.0183 0.531564 89.7775 1.31342L127.013 15.9731C130.336 17.1459 131.998 18.5142 131.998 20.0779C131.998 20.6643 131.313 22.0325 129.945 24.1826L56.3533 124.748H90.0707L96.521 87.8059C96.9119 85.2649 97.4005 83.7012 97.9869 83.1148C98.7688 82.3329 100.332 81.942 102.678 81.942H133.463C136.005 81.942 137.666 82.3329 138.448 83.1148C139.23 83.8966 139.621 85.5581 139.621 88.0991V125.042H153.987C156.724 125.042 158.385 125.433 158.971 126.214C159.753 126.996 160.144 129.049 160.144 132.372V162.277Z" fill="white"/>
<path d="M326.029 101.586C326.029 113.509 325.345 124.358 323.976 134.131C322.803 143.904 320.458 153.579 316.94 163.157C313.421 172.539 308.73 180.455 302.866 186.906C297.198 193.356 289.477 198.536 279.704 202.445C270.126 206.354 258.985 208.309 246.28 208.309C220.869 208.309 201.519 199.318 188.227 181.335C175.131 163.352 168.583 138.626 168.583 107.157C168.583 92.888 169.951 79.7919 172.688 67.8687C175.424 55.9454 179.822 44.9017 185.882 34.7376C191.941 24.5735 200.346 16.6573 211.096 10.9888C222.042 5.12494 234.943 2.19299 249.798 2.19299C263.676 2.19299 275.697 5.02721 285.861 10.6957C296.221 16.1686 304.137 23.694 309.61 33.2717C315.278 42.8494 319.383 53.3066 321.924 64.6435C324.66 75.9804 326.029 88.2946 326.029 101.586ZM273.547 110.089C273.547 92.497 272.569 78.8146 270.615 69.0414C268.66 59.2683 265.924 52.7203 262.405 49.3974C259.083 46.0745 254.489 44.4131 248.625 44.4131C240.025 44.4131 233.379 49.1042 228.688 58.4864C223.997 67.6732 221.651 83.7012 221.651 106.57C221.651 128.853 223.899 144.393 228.395 153.188C233.086 161.984 239.536 166.382 247.746 166.382C256.541 166.382 262.992 162.375 267.096 154.361C271.397 146.152 273.547 131.394 273.547 110.089Z" fill="white"/>
<path d="M493.997 162.277C493.997 164.818 493.606 166.48 492.824 167.262C492.238 168.044 490.576 168.435 487.84 168.435H473.473V202.445C473.473 205.182 473.082 206.843 472.3 207.429C471.519 208.016 469.857 208.309 467.316 208.309H428.614C425.878 208.309 424.119 207.918 423.337 207.136C422.751 206.55 422.457 204.986 422.457 202.445V168.435H344.761C342.22 168.435 340.558 168.044 339.776 167.262C338.995 166.48 338.604 164.818 338.604 162.277V123.869L415.714 3.95217C417.473 1.41115 418.744 0.140633 419.525 0.140633C420.503 0.140633 421.871 0.531564 423.63 1.31342L460.866 15.9731C464.189 17.1459 465.85 18.5142 465.85 20.0779C465.85 20.6643 465.166 22.0325 463.798 24.1826L390.206 124.748H423.923L430.374 87.8059C430.765 85.2649 431.253 83.7012 431.84 83.1148C432.621 82.3329 434.185 81.942 436.531 81.942H467.316C469.857 81.942 471.519 82.3329 472.3 83.1148C473.082 83.8966 473.473 85.5581 473.473 88.0991V125.042H487.84C490.576 125.042 492.238 125.433 492.824 126.214C493.606 126.996 493.997 129.049 493.997 132.372V162.277Z" fill="white"/>
</g>
<defs>
<filter id="filter0_d" x="0.750977" y="0.140633" width="493.246" height="212.168" filterUnits="userSpaceOnUse" color-interpolation-filters="sRGB">
<feFlood flood-opacity="0" result="BackgroundImageFix"/>
<feColorMatrix in="SourceAlpha" type="matrix" values="0 0 0 0 0 0 0 0 0 0 0 0 0 0 0 0 0 0 127 0" result="hardAlpha"/>
<feOffset dx="-2" dy="2"/>
<feGaussianBlur stdDeviation="1"/>
<feColorMatrix type="matrix" values="0 0 0 0 0.407789 0 0 0 0 0.153002 0 0 0 0 0.000130266 0 0 0 0.75 0"/>
<feBlend mode="normal" in2="BackgroundImageFix" result="effect1_dropShadow"/>
<feBlend mode="normal" in="SourceGraphic" in2="effect1_dropShadow" result="shape"/>
</filter>
</defs>
</svg>
