<svg width="499" height="212" viewBox="0 0 499 212" fill="none" xmlns="http://www.w3.org/2000/svg">
<g filter="url(#filter0_d)">
<path d="M146.927 131.192C146.927 154.256 139.206 172.728 123.765 186.606C108.323 200.288 87.8974 207.129 62.4871 207.129C54.8641 207.129 43.234 205.566 27.597 202.438C12.1554 199.311 4.43457 195.401 4.43457 190.71C4.43457 190.515 4.43457 190.222 4.43457 189.831C4.63003 189.44 4.72777 189.147 4.72777 188.951L10.8849 155.82C11.0803 154.061 11.9599 153.181 13.5236 153.181C14.5009 153.181 15.9669 153.572 17.9215 154.354C37.6633 160.218 52.6162 163.15 62.7803 163.15C73.9217 163.15 82.5221 160.414 88.5815 154.941C94.8363 149.468 97.9637 141.649 97.9637 131.485C97.9637 115.652 90.5361 107.736 75.6809 107.736C69.6215 107.736 64.6373 108.811 60.728 110.961C57.0142 112.916 52.9094 116.239 48.4138 120.93C46.8501 122.494 45.3841 123.275 44.0159 123.275C43.234 123.275 42.5499 123.178 41.9635 122.982L12.9372 113.6C9.80981 112.623 8.2461 110.864 8.2461 108.323L17.6283 11.275C18.0193 8.73399 18.5079 7.17029 19.0943 6.5839C19.6807 5.80205 21.3421 5.41112 24.0786 5.41112H126.11C128.065 5.41112 129.336 5.50885 129.922 5.70431C130.704 5.89977 131.29 6.38843 131.681 7.17029C132.268 7.95214 132.561 9.22265 132.561 10.9818V45.872C132.561 48.6085 132.17 50.27 131.388 50.8563C130.802 51.4427 129.14 51.7359 126.404 51.7359H63.0735L60.1416 73.4324C65.81 69.5231 73.2376 67.5685 82.4244 67.5685C101.775 67.5685 117.315 73.4324 129.042 85.1602C140.966 96.6925 146.927 112.036 146.927 131.192Z" fill="white"/>
<path d="M323.74 99.8199C323.74 111.743 323.056 122.591 321.687 132.365C320.515 142.138 318.169 151.813 314.651 161.391C311.132 170.773 306.441 178.689 300.577 185.14C294.909 191.59 287.188 196.77 277.415 200.679C267.837 204.588 256.696 206.543 243.991 206.543C218.581 206.543 199.23 197.552 185.938 179.569C172.842 161.586 166.294 136.86 166.294 105.391C166.294 91.1218 167.662 78.0257 170.399 66.1025C173.135 54.1792 177.533 43.1355 183.593 32.9714C189.652 22.8074 198.057 14.8911 208.807 9.22266C219.753 3.35875 232.654 0.426804 247.509 0.426804C261.387 0.426804 273.408 3.26102 283.572 8.92947C293.932 14.4024 301.848 21.9278 307.321 31.5055C312.989 41.0832 317.094 51.5405 319.635 62.8773C322.372 74.2142 323.74 86.5284 323.74 99.8199ZM271.258 108.323C271.258 90.7309 270.281 77.0484 268.326 67.2753C266.371 57.5021 263.635 50.9541 260.117 47.6312C256.794 44.3083 252.2 42.6469 246.336 42.6469C237.736 42.6469 231.09 47.338 226.399 56.7202C221.708 65.907 219.362 81.935 219.362 104.804C219.362 127.087 221.61 142.626 226.106 151.422C230.797 160.218 237.247 164.616 245.457 164.616C254.253 164.616 260.703 160.609 264.808 152.595C269.108 144.386 271.258 129.628 271.258 108.323Z" fill="white"/>
<path d="M498.397 99.8199C498.397 111.743 497.713 122.591 496.344 132.365C495.172 142.138 492.826 151.813 489.308 161.391C485.789 170.773 481.098 178.689 475.234 185.14C469.566 191.59 461.845 196.77 452.072 200.679C442.494 204.588 431.353 206.543 418.648 206.543C393.238 206.543 373.887 197.552 360.595 179.569C347.499 161.586 340.951 136.86 340.951 105.391C340.951 91.1218 342.319 78.0257 345.056 66.1025C347.792 54.1792 352.19 43.1355 358.25 32.9714C364.309 22.8074 372.714 14.8911 383.464 9.22266C394.41 3.35875 407.311 0.426804 422.166 0.426804C436.044 0.426804 448.065 3.26102 458.229 8.92947C468.589 14.4024 476.505 21.9278 481.978 31.5055C487.646 41.0832 491.751 51.5405 494.292 62.8773C497.029 74.2142 498.397 86.5284 498.397 99.8199ZM445.915 108.323C445.915 90.7309 444.938 77.0484 442.983 67.2753C441.028 57.5021 438.292 50.9541 434.774 47.6312C431.451 44.3083 426.857 42.6469 420.993 42.6469C412.393 42.6469 405.747 47.338 401.056 56.7202C396.365 65.907 394.019 81.935 394.019 104.804C394.019 127.087 396.267 142.626 400.763 151.422C405.454 160.218 411.904 164.616 420.114 164.616C428.91 164.616 435.36 160.609 439.465 152.595C443.765 144.386 445.915 129.628 445.915 108.323Z" fill="white"/>
</g>
<defs>
<filter id="filter0_d" x="0.43457" y="0.426804" width="497.962" height="210.702" filterUnits="userSpaceOnUse" color-interpolation-filters="sRGB">
<feFlood flood-opacity="0" result="BackgroundImageFix"/>
<feColorMatrix in="SourceAlpha" type="matrix" values="0 0 0 0 0 0 0 0 0 0 0 0 0 0 0 0 0 0 127 0" result="hardAlpha"/>
<feOffset dx="-2" dy="2"/>
<feGaussianBlur stdDeviation="1"/>
<feColorMatrix type="matrix" values="0 0 0 0 0.407789 0 0 0 0 0.153002 0 0 0 0 0.000130266 0 0 0 0.75 0"/>
<feBlend mode="normal" in2="BackgroundImageFix" result="effect1_dropShadow"/>
<feBlend mode="normal" in="SourceGraphic" in2="effect1_dropShadow" result="shape"/>
</filter>
</defs>
</svg>
