<svg width="138" height="119" viewBox="0 0 138 119" fill="none" xmlns="http://www.w3.org/2000/svg">
<path d="M138 94.4833C138 102.832 79.8683 119 68.9749 119C58.0815 119 0 103.126 0 93.6015C0 84.077 0.0960292 0 0.0960292 0H137.889C137.889 0 138 86.1935 138 94.4833Z" fill="#E30613"/>
<path d="M38.001 43.4349C38.001 38.523 39.9217 33.8989 43.4141 30.4099C46.8999 26.9208 51.524 25 56.4359 25H99V34.3678H56.4359C54.03 34.3678 51.7568 35.3153 50.0365 37.0323C48.3162 38.7558 47.3688 41.0291 47.3688 43.4349L47.3138 59.16C46.8773 63.3346 43.731 66.7073 39.6598 67.3281L38.001 67.5803V43.4349Z" fill="white"/>
<path d="M38 85.8761V76.5083H80.5642C82.97 76.5083 85.2432 75.5609 86.9603 73.8406C88.6806 72.1235 89.628 69.8503 89.628 67.4445L89.6377 52.5181C89.6377 48.0751 92.9489 44.2174 97.3402 43.5512L98.9958 43.299V67.4445C98.9958 72.3564 97.075 76.9804 93.5827 80.4663C90.0937 83.9554 85.4696 85.8761 80.5609 85.8761H38Z" fill="white"/>
<path d="M73.8795 67.6987V55.5049L68.5016 62.1797L63.1236 55.5049V67.6987H56V43.6987H62.7475L68.5016 51.4154L74.2525 43.6987H81V67.6987H73.8795Z" fill="white"/>
</svg>
