<svg width="100" height="82" viewBox="0 0 100 82" fill="none" xmlns="http://www.w3.org/2000/svg">
<g filter="url(#filter0_f)">
<path d="M15.3209 79.3743C11.3875 79.3743 2.00002 46.7072 2.00002 40.5455C2.00002 34.3837 11.6838 2 16.1711 2L15.3209 79.3743Z" fill="#682700"/>
</g>
<path d="M15.978 80C11.2181 80 2 47.1429 2 40.9858C2 34.8286 11.0505 2 16.4808 2C21.9111 2 100 2.05428 100 2.05428L100 79.9372C100 79.9372 20.7044 80 15.978 80Z" fill="#EB2316"/>
<path d="M34.0007 32.2973C34.0007 28.7543 35.3862 25.4189 37.9053 22.9022C40.4196 20.3855 43.755 19 47.298 19H78V25.7571H47.298C45.5627 25.7571 43.923 26.4405 42.6821 27.679C41.4412 28.9222 40.7578 30.5619 40.7578 32.2973L40.7182 43.64C40.4033 46.6511 38.1338 49.0839 35.1973 49.5317L34.0007 49.7136V32.2973Z" fill="white"/>
<path d="M34 62.9106V56.1535H64.702C66.4373 56.1535 68.077 55.4701 69.3156 54.2292C70.5564 52.9907 71.2398 51.351 71.2398 49.6156L71.2468 38.8491C71.2468 35.6443 73.6352 32.8617 76.8027 32.3812L77.9969 32.1993V49.6156C77.9969 53.1586 76.6114 56.494 74.0924 59.0084C71.5757 61.5251 68.2403 62.9106 64.6996 62.9106H34Z" fill="white"/>
<path d="M59.8803 41.0035V49.799H65.0163V32.4875H60.1493L56.0011 38.0537L51.8506 32.4875H46.9836V49.799H52.1219V41.0035L56.0011 45.8181L59.8803 41.0035Z" fill="white"/>
<defs>
<filter id="filter0_f" x="0" y="0" width="18.1711" height="81.3743" filterUnits="userSpaceOnUse" color-interpolation-filters="sRGB">
<feFlood flood-opacity="0" result="BackgroundImageFix"/>
<feBlend mode="normal" in="SourceGraphic" in2="BackgroundImageFix" result="shape"/>
<feGaussianBlur stdDeviation="1" result="effect1_foregroundBlur"/>
</filter>
</defs>
</svg>
