<svg width="100" height="82" viewBox="0 0 100 82" fill="none" xmlns="http://www.w3.org/2000/svg">
<g filter="url(#filter0_f)">
<path d="M15.3209 79.3743C11.3875 79.3743 2.00002 46.7072 2.00002 40.5455C2.00002 34.3837 11.6838 2 16.1711 2L15.3209 79.3743Z" fill="#682700"/>
</g>
<path d="M15.978 80C11.2181 80 2 47.1429 2 40.9858C2 34.8286 11.0505 2 16.4808 2C21.9111 2 100 2.05428 100 2.05428L100 79.9372C100 79.9372 20.7044 80 15.978 80Z" fill="#14592D"/>
<path d="M54.0143 31.8068L47.6947 38.5L41.2581 31.9263C37.7473 28.2211 37.7473 22.3645 41.2581 18.7789C44.769 15.0737 50.5034 15.0737 54.1313 18.7789C57.6422 22.245 57.6422 28.2211 54.0143 31.8068Z" fill="white"/>
<path d="M41.424 50.0737L48.0451 43.5L54.6663 50.0737C58.2779 53.6594 58.2779 59.6355 54.6663 63.2211C51.0548 66.9263 45.1559 66.9263 41.424 63.2211C37.692 59.5159 37.692 53.6594 41.424 50.0737Z" fill="white"/>
<path d="M57.1 47.5895L50.5 41L57.1 34.4105C60.7 30.6965 66.58 30.6965 70.3 34.4105C73.9 38.1246 73.9 43.9952 70.3 47.5895C66.58 51.3035 60.7 51.3035 57.1 47.5895Z" fill="white"/>
<path d="M38.4583 34.4105L44.875 41L38.4583 47.5895C34.9583 51.3035 29.2417 51.3035 25.625 47.5895C22.125 43.8754 22.125 38.0048 25.625 34.4105C29.2417 30.6965 34.9583 30.6965 38.4583 34.4105Z" fill="white"/>
<defs>
<filter id="filter0_f" x="0" y="0" width="18.1711" height="81.3743" filterUnits="userSpaceOnUse" color-interpolation-filters="sRGB">
<feFlood flood-opacity="0" result="BackgroundImageFix"/>
<feBlend mode="normal" in="SourceGraphic" in2="BackgroundImageFix" result="shape"/>
<feGaussianBlur stdDeviation="1" result="effect1_foregroundBlur"/>
</filter>
</defs>
</svg>
