<svg width="138" height="119" viewBox="0 0 138 119" fill="none" xmlns="http://www.w3.org/2000/svg">
<path d="M138 94.4833C138 102.832 79.8683 119 68.9749 119C58.0815 119 0 103.126 0 93.6015C0 84.077 0.0960292 0 0.0960292 0H137.889C137.889 0 138 86.1935 138 94.4833Z" fill="#14592D"/>
<path d="M78.6228 44.2908L68.5116 55L58.213 44.4821C52.5957 38.5538 52.5957 29.1833 58.213 23.4462C63.8304 17.5179 73.0055 17.5179 78.8101 23.4462C84.4275 28.992 84.4275 38.5538 78.6228 44.2908Z" fill="white"/>
<path d="M58.4783 73.5179L69.0722 63L79.6661 73.5179C85.4446 79.255 85.4446 88.8167 79.6661 94.5538C73.8876 100.482 64.4494 100.482 58.4783 94.5538C52.5072 88.6255 52.5072 79.255 58.4783 73.5179Z" fill="white"/>
<path d="M83.56 69.5431L73 59L83.56 48.4569C89.32 42.5144 98.728 42.5144 104.68 48.4569C110.44 54.3994 110.44 63.7923 104.68 69.5431C98.728 75.4856 89.32 75.4856 83.56 69.5431Z" fill="white"/>
<path d="M53.7333 48.4569L64 59L53.7333 69.5431C48.1333 75.4856 38.9867 75.4856 33.2 69.5431C27.6 63.6006 27.6 54.2077 33.2 48.4569C38.9867 42.5144 48.1333 42.5144 53.7333 48.4569Z" fill="white"/>
</svg>
