<svg width="25" height="25" viewBox="0 0 25 25" fill="none" xmlns="http://www.w3.org/2000/svg">
<path d="M25 14.3137C25 14.6187 24.9508 14.8148 24.8524 14.902C24.7539 14.9673 24.4751 15 24.0157 15H1.03346C0.574147 15 0.278871 14.9673 0.147638 14.902C0.0492125 14.8148 0 14.6187 0 14.3137V10.6863C0 10.403 0.0492125 10.2179 0.147638 10.1307C0.278871 10.0436 0.574147 10 1.03346 10H24.0157C24.4751 10 24.7539 10.0436 24.8524 10.1307C24.9508 10.2179 25 10.403 25 10.6863V14.3137Z" fill="url(#paint0_linear)"/>
<path d="M10.6863 25C10.3813 25 10.1852 24.9508 10.098 24.8524C10.0327 24.7539 10 24.4751 10 24.0157L10 1.03346C10 0.574147 10.0327 0.278871 10.098 0.147638C10.1852 0.0492123 10.3813 -2.01891e-07 10.6863 -1.88559e-07L14.3137 -2.9998e-08C14.597 -1.76179e-08 14.7821 0.0492125 14.8693 0.147638C14.9564 0.278871 15 0.574147 15 1.03346L15 24.0157C15 24.4751 14.9564 24.7539 14.8693 24.8524C14.7821 24.9508 14.5969 25 14.3137 25L10.6863 25Z" fill="url(#paint1_linear)"/>
<defs>
<linearGradient id="paint0_linear" x1="34.4435" y1="6.56187" x2="31.7372" y2="24.4058" gradientUnits="userSpaceOnUse">
<stop stop-color="white"/>
<stop offset="0.530853" stop-color="#FFE686"/>
<stop offset="1" stop-color="#F7B545"/>
</linearGradient>
<linearGradient id="paint1_linear" x1="18.4381" y1="34.4435" x2="0.594225" y2="31.7372" gradientUnits="userSpaceOnUse">
<stop stop-color="white"/>
<stop offset="0.530853" stop-color="#FFE686"/>
<stop offset="1" stop-color="#F7B545"/>
</linearGradient>
</defs>
</svg>
